HIERARCHY
ROOT Hips
{
	OFFSET -3.958830 18.904000 13.208200
	CHANNELS 6 Xposition Yposition Zposition Zrotation Yrotation Xrotation 
	JOINT LHipJoint
	{
		OFFSET 0.000000 0.000000 0.000000
		CHANNELS 3 Zrotation Yrotation Xrotation
		JOINT LeftUpLeg
		{
			OFFSET 1.800000 -1.400000 0.085000
			CHANNELS 3 Zrotation Yrotation Xrotation
			JOINT LeftLeg
			{
				OFFSET 2.215000 -6.000000 0.000000
				CHANNELS 3 Zrotation Yrotation Xrotation
				JOINT LeftFoot
				{
					OFFSET 2.500000 -6.900000 0.000000
					CHANNELS 3 Zrotation Yrotation Xrotation
					JOINT LeftToeBase
					{
						OFFSET 0.200000 -0.500000 1.950000
						CHANNELS 3 Zrotation Yrotation Xrotation
						End Site
						{
							OFFSET 0.000000 0.000000 0.000000
						}
					}
				}
			}
		}
	}
	JOINT RHipJoint
	{
		OFFSET 0.000000 0.000000 0.000000
		CHANNELS 3 Zrotation Yrotation Xrotation
		JOINT RightUpLeg
		{
			OFFSET -1.800000 -1.400000 0.085000
			CHANNELS 3 Zrotation Yrotation Xrotation
			JOINT RightLeg
			{
				OFFSET -2.215000 -6.000000 0.000000
				CHANNELS 3 Zrotation Yrotation Xrotation
				JOINT RightFoot
				{
					OFFSET -2.500000 -6.900000 0.000000
					CHANNELS 3 Zrotation Yrotation Xrotation
					JOINT RightToeBase
					{
						OFFSET -0.200000 -0.500000 1.950000
						CHANNELS 3 Zrotation Yrotation Xrotation
						End Site
						{
							OFFSET 0.000000 0.000000 0.000000
						}
					}
				}
			}
		}
	}
	JOINT LowerBack
	{
		OFFSET 0.000000 0.000000 0.000000
		CHANNELS 3 Zrotation Yrotation Xrotation
		JOINT Spine
		{
			OFFSET -0.087000 1.940000 -0.288900
			CHANNELS 3 Zrotation Yrotation Xrotation
			JOINT Spine1
			{
				OFFSET 0.000000 1.950000 0.060000
				CHANNELS 3 Zrotation Yrotation Xrotation
				JOINT Neck
				{
					OFFSET 0.000000 0.000000 0.000000
					CHANNELS 3 Zrotation Yrotation Xrotation
					JOINT Neck1
					{
						OFFSET 0.000000 1.600000 0.340000
						CHANNELS 3 Zrotation Yrotation Xrotation
						JOINT Head
						{
							OFFSET 0.000000 1.667000 -0.240000
							CHANNELS 3 Zrotation Yrotation Xrotation
							End Site
							{
								OFFSET 0.000000 0.000000 0.000000
							}
						}
					}
				}
				JOINT LeftShoulder
				{
					OFFSET 0.000000 0.000000 0.000000
					CHANNELS 3 Zrotation Yrotation Xrotation
					JOINT LeftArm
					{
						OFFSET 2.700000 1.550000 -0.730000
						CHANNELS 3 Zrotation Yrotation Xrotation
						JOINT LeftForeArm
						{
							OFFSET 5.450000 0.000000 0.000000
							CHANNELS 3 Zrotation Yrotation Xrotation
							JOINT LeftHand
							{
								OFFSET 3.450000 0.000000 0.000000
								CHANNELS 3 Zrotation Yrotation Xrotation
								JOINT LeftHandIndex1
								{
									OFFSET 0.750000 0.000000 0.000000
									CHANNELS 3 Zrotation Yrotation Xrotation
									End Site
									{
										OFFSET 0.000000 0.000000 0.000000
									}
								}
							}
						}
					}
				}
				JOINT RightShoulder
				{
					OFFSET 0.000000 0.000000 0.000000
					CHANNELS 3 Zrotation Yrotation Xrotation
					JOINT RightArm
					{
						OFFSET -2.700000 1.550000 -0.730000
						CHANNELS 3 Zrotation Yrotation Xrotation
						JOINT RightForeArm
						{
							OFFSET -5.450000 0.000000 0.000000
							CHANNELS 3 Zrotation Yrotation Xrotation
							JOINT RightHand
							{
								OFFSET -3.450000 0.000000 0.000000
								CHANNELS 3 Zrotation Yrotation Xrotation
								JOINT RightHandIndex1
								{
									OFFSET -0.750000 0.000000 0.000000
									CHANNELS 3 Zrotation Yrotation Xrotation
									End Site
									{
										OFFSET 0.000000 0.000000 0.000000
									}
								}
							}
						}
					}
				}
			}
		}
	}
}
MOTION
Frames: 6
Frame Time: 0.016667
-0.192180 16.949860 -2.987900 -8.296997 -19.342371 -4.492705 -15.380113 13.235207 4.062528 13.631944 -0.059907 -31.149879 -9.867613 14.155866 43.001049 0.651391 8.402492 1.225762 1.072890 0.889820 1.132940 18.017176 -10.082323 3.332112 5.367298 0.920520 -2.815748 8.801532 -4.951029 9.514973 -1.112898 -3.021778 3.007616 0.146300 -0.761020 0.504130 -2.672162 -2.759497 -8.850040 11.472991 3.767916 45.959092 -0.678237 12.056515 14.530539 6.013800 -3.918963 -23.635627 -10.501062 2.994939 63.940315 -4.696010 2.122200 -38.772040 -23.838221 -30.036978 11.971840 -43.203267 0.977617 -22.139011 -46.470131 -82.242118 22.419457 -2.331966 3.714374 1.002040 -0.675170 1.050970 0.100160 13.771077 44.645434 15.967711 38.703445 39.419224 -12.594125 33.416388 50.222564 9.393408 1.695097 -1.825280 0.426060 -0.111950 -0.557700 -0.171330 
-0.205940 16.939630 -2.984490 -8.643020 -20.285206 -4.467115 -15.467690 13.258269 4.122871 14.560032 0.455241 -31.735381 -10.069382 14.721747 43.733975 0.701211 8.657988 1.125974 1.089720 0.906190 1.150780 17.966044 -9.892893 3.309446 5.556691 0.777540 -2.026916 9.210109 -4.965236 9.008110 -1.139644 -3.061534 2.987789 0.149280 -0.783830 0.507810 -2.482719 -3.120006 -8.920040 10.823034 4.245056 46.207846 0.314582 12.318311 14.374632 6.166460 -4.138827 -23.819809 -11.160350 3.604759 64.678790 -5.260570 2.115090 -38.677370 -24.330667 -29.906919 11.800934 -43.789436 1.820781 -22.839388 -37.293368 -77.686562 13.952668 -2.338085 3.622979 1.004550 -0.688220 1.066140 0.099080 14.146203 44.956989 16.164599 38.018446 39.275024 -12.181209 35.196942 50.974815 10.471213 1.665096 -1.848150 0.440740 -0.122060 -0.568830 -0.171440 
-0.218440 16.931020 -2.980460 -8.934177 -21.074957 -4.428064 -15.542535 13.275211 4.173010 15.379614 0.940986 -32.176232 -10.257858 15.215353 44.274406 0.740308 8.867937 1.044092 1.106140 0.920650 1.169220 17.923462 -9.732311 3.286755 5.677721 0.684558 -1.407745 9.615962 -4.988701 8.672770 -1.162164 -3.099829 2.968870 0.153390 -0.803930 0.510480 -2.323496 -3.418645 -8.978067 10.271707 4.643514 46.325068 1.189566 12.479092 14.347027 6.277880 -4.296622 -23.957125 -11.703783 4.121367 65.257131 -5.736120 2.087450 -38.597400 -24.676348 -29.832084 11.649510 -44.253536 2.306718 -23.004522 -31.765775 -73.251907 9.176625 -2.348242 3.558359 1.006840 -0.699130 1.078110 0.097250 14.427650 45.201383 16.328706 37.448017 39.177066 -11.831957 36.668880 51.806078 11.454332 1.631677 -1.874271 0.452630 -0.130110 -0.578790 -0.173140 
-0.230040 16.924590 -2.975890 -9.174073 -21.748990 -4.363669 -15.608062 13.288927 4.216327 16.116970 1.399509 -32.497173 -10.466215 15.657292 44.628400 0.768504 9.041558 0.975260 1.118610 0.929430 1.186460 17.886483 -9.595113 3.263082 5.755507 0.635142 -0.950294 9.980734 -5.016114 8.484359 -1.178519 -3.132361 2.952152 0.156230 -0.821080 0.512060 -2.184490 -3.670917 -9.027098 9.772382 5.002872 46.309894 1.971696 12.571141 14.406501 6.359429 -4.368590 -24.065571 -12.077004 4.539710 65.770925 -6.229790 2.066670 -38.470010 -24.934319 -29.842611 11.524981 -44.616570 2.503823 -22.835977 -27.727938 -68.859635 5.982937 -2.361993 3.505173 1.009170 -0.707220 1.085940 0.092590 14.646621 45.388823 16.507520 37.011529 39.112264 -11.577274 37.881468 52.790036 12.379364 1.588477 -1.906564 0.460870 -0.136450 -0.584380 -0.177260 
-0.240000 16.920430 -2.971110 -9.375458 -22.326121 -4.292963 -15.662749 13.299427 4.253420 16.752371 1.813625 -32.743560 -10.636456 16.038172 44.897646 0.792268 9.183647 0.918038 1.129570 0.938740 1.200370 17.855889 -9.482727 3.240532 5.793043 0.615651 -0.614092 10.309575 -5.046686 8.416003 -1.190631 -3.162683 2.936824 0.160410 -0.836300 0.512970 -2.068554 -3.876294 -9.067757 9.361812 5.294361 46.213601 2.633112 12.595258 14.572312 6.422848 -4.397414 -24.178539 -12.377048 4.886179 66.171240 -6.671080 2.022260 -38.269380 -25.141472 -29.959220 11.416693 -44.843033 2.451415 -22.415456 -24.540547 -64.537749 3.717230 -2.374746 3.462227 1.008310 -0.713060 1.091910 0.088720 14.827679 45.577338 16.752967 36.567773 39.069482 -11.480064 39.028332 54.038013 13.354884 1.524267 -1.955273 0.468680 -0.142920 -0.589840 -0.179930 
-0.249100 16.917470 -2.966190 -9.505255 -22.824791 -4.237328 -15.707659 13.308408 4.282516 17.269796 2.182087 -32.917254 -10.780454 16.369326 45.095561 0.811944 9.299833 0.870561 1.137760 0.946820 1.209580 17.830386 -9.394151 3.219265 5.763551 0.612091 -0.363541 10.615447 -5.078415 8.398720 -1.199391 -3.191762 2.922930 0.164930 -0.848470 0.513540 -1.971667 -4.039914 -9.099210 8.984083 5.551904 46.038449 3.193282 12.566230 14.854980 6.464707 -4.382728 -24.294030 -12.601767 5.171182 66.482239 -7.049150 1.961580 -38.017310 -25.279897 -30.177331 11.322012 -44.966990 2.159674 -21.771194 -21.840251 -60.255486 2.023495 -2.388908 3.425467 1.005020 -0.716480 1.095640 0.085600 14.957215 45.768537 17.080397 36.107079 39.108465 -11.546293 40.145647 55.600155 14.424630 1.429252 -2.026031 0.475530 -0.148360 -0.593120 -0.181490 
